<?xml version="1.0" encoding="utf-8"?>
<!-- Generator: Adobe Illustrator 23.1.0, SVG Export Plug-In . SVG Version: 6.00 Build 0)  -->
<svg version="1.1" id="Layer_1" xmlns="http://www.w3.org/2000/svg" xmlns:xlink="http://www.w3.org/1999/xlink" x="0px" y="0px"
	 viewBox="0 0 93.2 34.3" style="enable-background:new 0 0 93.2 34.3;" xml:space="preserve">
<style type="text/css">
	.st0{fill:#090909;}
	.st1{fill:url(#SVGID_1_);}
	.st2{fill:url(#SVGID_2_);}
	.st3{fill:url(#SVGID_3_);}
	.st4{fill:url(#SVGID_4_);}
	.st5{fill:url(#SVGID_5_);}
</style>
<g>
	<g>
		<g>
			<g>
				<path class="st0" d="M17.2,21.7c-0.7,0-1.3-0.1-1.9-0.3c-0.6-0.2-1.1-0.6-1.6-1c-0.4-0.4-0.8-0.9-1-1.5s-0.4-1.2-0.4-1.8
					c0-0.7,0.1-1.3,0.4-1.8s0.6-1,1-1.5c0.4-0.4,1-0.7,1.5-1c0.6-0.2,1.2-0.3,1.9-0.3c0.7,0,1.4,0.1,1.9,0.3c0.6,0.2,1.1,0.5,1.5,1
					c0.4,0.4,0.8,0.9,1,1.5c0.2,0.6,0.4,1.2,0.4,1.8c0,0.7-0.1,1.3-0.4,1.8c-0.2,0.6-0.6,1.1-1,1.5c-0.4,0.4-1,0.7-1.5,1
					C18.6,21.6,17.9,21.7,17.2,21.7z M17.2,20c0.4,0,0.8-0.1,1.1-0.2c0.3-0.1,0.6-0.3,0.9-0.6s0.5-0.6,0.6-0.9
					c0.1-0.3,0.2-0.7,0.2-1.2s-0.1-0.8-0.2-1.2s-0.3-0.6-0.6-0.9s-0.6-0.5-0.9-0.6c-0.3-0.1-0.7-0.2-1.1-0.2s-0.8,0.1-1.1,0.2
					c-0.3,0.1-0.6,0.3-0.9,0.6s-0.4,0.6-0.6,0.9s-0.2,0.7-0.2,1.2s0.1,0.8,0.2,1.2c0.1,0.3,0.3,0.6,0.6,0.9s0.5,0.5,0.9,0.6
					C16.4,19.9,16.8,20,17.2,20z"/>
				<path class="st0" d="M26.1,21.5v-7.2h-2.9v-1.7H31v1.7h-2.9v7.2H26.1z"/>
				<path class="st0" d="M37.1,21.7c-0.7,0-1.3-0.1-1.9-0.3c-0.6-0.2-1.1-0.5-1.5-1c-0.4-0.4-0.8-0.9-1-1.5
					c-0.2-0.6-0.4-1.2-0.4-1.8s0.1-1.3,0.4-1.8c0.2-0.6,0.6-1,1-1.5c0.4-0.4,1-0.7,1.5-1c0.6-0.2,1.2-0.3,1.9-0.3
					c0.8,0,1.5,0.1,2.1,0.4s1.2,0.7,1.6,1.2l-1.3,1.2c-0.3-0.3-0.6-0.6-1-0.8c-0.4-0.2-0.8-0.3-1.2-0.3c-0.4,0-0.8,0.1-1.1,0.2
					s-0.7,0.3-0.9,0.6s-0.5,0.6-0.6,0.9c-0.1,0.3-0.2,0.7-0.2,1.2s0.1,0.8,0.2,1.2c0.1,0.3,0.3,0.6,0.6,0.9s0.6,0.5,0.9,0.6
					s0.7,0.2,1.1,0.2c0.4,0,0.9-0.1,1.2-0.3c0.4-0.2,0.7-0.4,1-0.8l1.3,1.2c-0.4,0.5-1,0.9-1.6,1.2S37.8,21.7,37.1,21.7z"/>
				<path class="st0" d="M47.1,21.7c-0.7,0-1.3-0.1-1.9-0.3s-1.1-0.6-1.6-1c-0.4-0.4-0.8-0.9-1-1.5s-0.4-1.2-0.4-1.8
					c0-0.7,0.1-1.3,0.4-1.8s0.6-1,1-1.5c0.4-0.4,1-0.7,1.5-1c0.6-0.2,1.2-0.3,1.9-0.3s1.4,0.1,1.9,0.3c0.6,0.2,1.1,0.5,1.5,1
					c0.4,0.4,0.8,0.9,1,1.5c0.2,0.6,0.4,1.2,0.4,1.8c0,0.7-0.1,1.3-0.4,1.8c-0.2,0.6-0.6,1.1-1,1.5c-0.4,0.4-1,0.7-1.5,1
					C48.5,21.6,47.8,21.7,47.1,21.7z M47.1,20c0.4,0,0.8-0.1,1.1-0.2s0.6-0.3,0.9-0.6s0.5-0.6,0.6-0.9c0.1-0.3,0.2-0.7,0.2-1.2
					s-0.1-0.8-0.2-1.2c-0.1-0.3-0.3-0.6-0.6-0.9s-0.5-0.5-0.9-0.6s-0.7-0.2-1.1-0.2s-0.8,0.1-1.1,0.2c-0.3,0.1-0.6,0.3-0.9,0.6
					c-0.2,0.3-0.4,0.6-0.6,0.9c-0.1,0.3-0.2,0.7-0.2,1.2s0.1,0.8,0.2,1.2c0.1,0.3,0.3,0.6,0.6,0.9c0.3,0.3,0.5,0.5,0.9,0.6
					C46.3,19.9,46.7,20,47.1,20z"/>
				<path class="st0" d="M54.2,21.5v-8.9h1.7l5.3,6.4h-0.8v-6.4h2v8.9h-1.7l-5.3-6.4h0.8v6.4H54.2z"/>
				<path class="st0" d="M68.7,21.5v-1.3l3.4-3.3c0.3-0.2,0.5-0.5,0.6-0.7c0.1-0.2,0.2-0.4,0.3-0.5c0-0.2,0.1-0.3,0.1-0.5
					c0-0.3-0.1-0.6-0.4-0.8c-0.2-0.2-0.6-0.3-1.1-0.3c-0.4,0-0.7,0.1-1,0.2c-0.3,0.2-0.6,0.4-0.8,0.7l-1.5-1
					c0.3-0.5,0.8-0.9,1.4-1.2c0.6-0.3,1.3-0.4,2.1-0.4c0.7,0,1.2,0.1,1.7,0.3c0.5,0.2,0.9,0.5,1.2,0.9c0.3,0.4,0.4,0.9,0.4,1.4
					c0,0.3,0,0.6-0.1,0.9c-0.1,0.3-0.2,0.6-0.4,0.9c-0.2,0.3-0.5,0.7-0.9,1.1l-2.9,2.7l-0.4-0.7h5v1.7H68.7z"/>
				<path class="st0" d="M78.1,21.6c-0.3,0-0.6-0.1-0.9-0.4s-0.4-0.5-0.4-0.9c0-0.4,0.1-0.7,0.4-0.9s0.5-0.3,0.9-0.3
					c0.3,0,0.6,0.1,0.9,0.3c0.2,0.2,0.4,0.5,0.4,0.9c0,0.4-0.1,0.7-0.4,0.9C78.8,21.5,78.5,21.6,78.1,21.6z"/>
				<path class="st0" d="M85.8,21.7c-0.7,0-1.3-0.1-1.9-0.3s-1.1-0.6-1.6-1c-0.4-0.4-0.8-0.9-1-1.5s-0.4-1.2-0.4-1.8
					c0-0.7,0.1-1.3,0.4-1.8s0.6-1,1-1.5c0.4-0.4,1-0.7,1.5-1c0.6-0.2,1.2-0.3,1.9-0.3s1.4,0.1,1.9,0.3c0.6,0.2,1.1,0.5,1.5,1
					c0.4,0.4,0.8,0.9,1,1.5c0.2,0.6,0.4,1.2,0.4,1.8c0,0.7-0.1,1.3-0.4,1.8c-0.2,0.6-0.6,1.1-1,1.5c-0.4,0.4-1,0.7-1.5,1
					C87.2,21.6,86.5,21.7,85.8,21.7z M85.8,20c0.4,0,0.8-0.1,1.1-0.2s0.6-0.3,0.9-0.6s0.5-0.6,0.6-0.9c0.1-0.3,0.2-0.7,0.2-1.2
					s-0.1-0.8-0.2-1.2c-0.1-0.3-0.3-0.6-0.6-0.9s-0.5-0.5-0.9-0.6s-0.7-0.2-1.1-0.2s-0.8,0.1-1.1,0.2c-0.3,0.1-0.6,0.3-0.9,0.6
					c-0.2,0.3-0.4,0.6-0.6,0.9c-0.1,0.3-0.2,0.7-0.2,1.2s0.1,0.8,0.2,1.2c0.1,0.3,0.3,0.6,0.6,0.9c0.3,0.3,0.5,0.5,0.9,0.6
					C85,19.9,85.4,20,85.8,20z"/>
			</g>
		</g>
	</g>
	<g>
		<linearGradient id="SVGID_1_" gradientUnits="userSpaceOnUse" x1="14.7043" y1="2.5479" x2="14.7043" y2="31.7211">
			<stop  offset="0" style="stop-color:#FEBE10"/>
			<stop  offset="0.5578" style="stop-color:#F15822"/>
			<stop  offset="1" style="stop-color:#ED1670"/>
		</linearGradient>
		<path class="st1" d="M6.4,25c-0.7,0-1.3,0.6-1.3,1.3c0,0.7,0.6,1.3,1.3,1.3c0.7,0,1.3-0.6,1.3-1.3C7.8,25.5,7.2,25,6.4,25z
			 M9.5,6.7c0.7,0,1.3-0.6,1.3-1.3c0-0.7-0.6-1.3-1.3-1.3c-0.7,0-1.3,0.6-1.3,1.3C8.3,6.2,8.8,6.7,9.5,6.7z M9.5,27.6
			c-0.7,0-1.3,0.6-1.3,1.3s0.6,1.3,1.3,1.3c0.7,0,1.3-0.6,1.3-1.3S10.2,27.6,9.5,27.6z M5.6,23c0-0.8-0.6-1.4-1.4-1.4
			c-0.8,0-1.4,0.6-1.4,1.4s0.6,1.4,1.4,1.4C5,24.3,5.6,23.7,5.6,23z M13.2,5.1c0.6,0,1.1-0.5,1.1-1.1s-0.5-1.1-1.1-1.1
			s-1.1,0.5-1.1,1.1S12.6,5.1,13.2,5.1z M4.2,12.7c0.8,0,1.4-0.6,1.4-1.4c0-0.8-0.6-1.4-1.4-1.4c-0.8,0-1.4,0.6-1.4,1.4
			C2.8,12.1,3.4,12.7,4.2,12.7z M4.4,19.1c0-0.8-0.6-1.4-1.4-1.4c-0.8,0-1.4,0.6-1.4,1.4c0,0.8,0.6,1.4,1.4,1.4
			C3.8,20.6,4.4,19.9,4.4,19.1z M6.4,9.3c0.7,0,1.3-0.6,1.3-1.3S7.2,6.7,6.4,6.7C5.7,6.7,5.1,7.3,5.1,8S5.7,9.3,6.4,9.3z M3,16.6
			c0.8,0,1.4-0.6,1.4-1.4c0-0.8-0.6-1.4-1.4-1.4s-1.4,0.6-1.4,1.4C1.6,15.9,2.3,16.6,3,16.6z M21.1,5.2c0.5,0,0.8-0.4,0.8-0.8
			c0-0.5-0.4-0.8-0.8-0.8c-0.5,0-0.8,0.4-0.8,0.8C20.3,4.8,20.6,5.2,21.1,5.2z M24.6,27.4c-0.3,0-0.6,0.3-0.6,0.6
			c0,0.3,0.3,0.6,0.6,0.6c0.3,0,0.6-0.3,0.6-0.6C25.2,27.7,25,27.4,24.6,27.4z M24.6,6.8c0.3,0,0.6-0.3,0.6-0.6
			c0-0.3-0.3-0.6-0.6-0.6c-0.3,0-0.6,0.3-0.6,0.6C24,6.6,24.3,6.8,24.6,6.8z M27.4,9.4c0.2,0,0.3-0.2,0.3-0.3s-0.2-0.3-0.3-0.3
			c-0.2,0-0.3,0.2-0.3,0.3S27.3,9.4,27.4,9.4z M27.4,24.9c-0.2,0-0.3,0.1-0.3,0.3c0,0.2,0.1,0.3,0.3,0.3c0.2,0,0.3-0.1,0.3-0.3
			C27.8,25,27.6,24.9,27.4,24.9z M21.1,29.1c-0.5,0-0.8,0.4-0.8,0.8c0,0.5,0.4,0.8,0.8,0.8c0.5,0,0.8-0.4,0.8-0.8
			C21.9,29.5,21.6,29.1,21.1,29.1z M17.2,4.6c0.6,0,1-0.4,1-1s-0.4-1-1-1s-1,0.4-1,1S16.6,4.6,17.2,4.6z M13.2,29.2
			c-0.6,0-1.1,0.5-1.1,1.1c0,0.6,0.5,1.1,1.1,1.1c0.6,0,1.1-0.5,1.1-1.1C14.4,29.7,13.8,29.2,13.2,29.2z M17.2,29.7
			c-0.6,0-1,0.4-1,1c0,0.6,0.4,1,1,1c0.6,0,1-0.4,1-1C18.2,30.2,17.7,29.7,17.2,29.7z"/>
		<linearGradient id="SVGID_2_" gradientUnits="userSpaceOnUse" x1="6.0088" y1="17.1344" x2="22.202" y2="17.1344">
			<stop  offset="0" style="stop-color:#7A53A2"/>
			<stop  offset="1" style="stop-color:#4379BD"/>
		</linearGradient>
		<path class="st2" d="M8.8,17.1c0-0.8-0.6-1.4-1.4-1.4c-0.8,0-1.4,0.6-1.4,1.4s0.6,1.4,1.4,1.4C8.2,18.6,8.8,17.9,8.8,17.1z
			 M10.7,22.8c-0.7,0-1.3,0.6-1.3,1.3s0.6,1.3,1.3,1.3c0.7,0,1.3-0.6,1.3-1.3S11.4,22.8,10.7,22.8z M8.3,19.6
			c-0.8,0-1.4,0.6-1.4,1.4s0.6,1.4,1.4,1.4c0.8,0,1.4-0.6,1.4-1.4S9,19.6,8.3,19.6z M8.3,14.7c0.8,0,1.4-0.6,1.4-1.4
			c0-0.8-0.6-1.4-1.4-1.4c-0.8,0-1.4,0.6-1.4,1.4C6.9,14.1,7.5,14.7,8.3,14.7z M21.7,10.2c0.3,0,0.5-0.2,0.5-0.5
			c0-0.3-0.2-0.5-0.5-0.5c-0.3,0-0.5,0.2-0.5,0.5C21.2,10,21.4,10.2,21.7,10.2z M10.7,8.9c-0.7,0-1.3,0.6-1.3,1.3s0.6,1.3,1.3,1.3
			c0.7,0,1.3-0.6,1.3-1.3S11.4,8.9,10.7,8.9z M14.1,24.8c-0.6,0-1.1,0.5-1.1,1.1c0,0.6,0.5,1.1,1.1,1.1c0.6,0,1.1-0.5,1.1-1.1
			C15.3,25.3,14.8,24.8,14.1,24.8z M21.7,24.1c-0.3,0-0.5,0.2-0.5,0.5s0.2,0.5,0.5,0.5c0.3,0,0.5-0.2,0.5-0.5S22,24.1,21.7,24.1z
			 M18.1,7.3c-0.5,0-0.9,0.4-0.9,0.9c0,0.5,0.4,0.9,0.9,0.9s0.9-0.4,0.9-0.9C18.9,7.7,18.5,7.3,18.1,7.3z M18.1,25.2
			c-0.5,0-0.9,0.4-0.9,0.9s0.4,0.9,0.9,0.9c0.5,0,0.9-0.4,0.9-0.9S18.5,25.2,18.1,25.2z M14.1,7.3c-0.6,0-1.1,0.5-1.1,1.1
			c0,0.6,0.5,1.1,1.1,1.1c0.6,0,1.1-0.5,1.1-1.1C15.3,7.8,14.8,7.3,14.1,7.3z"/>
	</g>
</g>
</svg>
